<svg width="675" height="61" viewBox="0 0 675 61" fill="none" xmlns="http://www.w3.org/2000/svg">
<path d="M0.906289 30.0139L5.0332 34.1479L9.16012 30.0281L5.0332 25.8941L0.906289 30.0139ZM5.0332 30.021L5.0332 30.7358L284.559 31.2164L284.559 30.5016L284.559 29.7868L5.0332 29.3062L5.0332 30.021Z" fill="white"/>
<path d="M342.282 32.8878L367.957 30.261L342.434 27.6464L347.469 20.7103L340.346 25.8791L337.695 -0.000976562L335.062 25.7278L328.15 20.7103L333.167 27.6222L307.433 30.261L333.319 32.9059L328.15 40.0296L335.08 35.0001L337.695 60.523L340.321 34.8427L347.469 40.0296L342.282 32.8878Z" fill="white"/>
<path d="M674.484 30.2612L670.35 26.1343L666.231 30.2612L670.365 34.3881L674.484 30.2612ZM670.357 30.2612L670.356 29.5464L390.83 29.5464L390.831 30.2612L390.832 30.976L670.359 30.976L670.357 30.2612Z" fill="white"/>
</svg>
