<?xml version="1.0" encoding="UTF-8"?>
<svg id="Layer_1" data-name="Layer 1" xmlns="http://www.w3.org/2000/svg" viewBox="0 0 3098 732">
  <defs>
    <style>
      .cls-1 {
        opacity: .5;
      }

      .cls-1, .cls-2 {
        fill: #fff;
        stroke-width: 0px;
      }
    </style>
  </defs>
  <g>
    <path class="cls-2" d="m1144,571v-179c0-133-87-216-219-216-141,0-239,78-245,182h162c5-33,31-56,72-56s69,29,69,72v23c-20-2-41-5-61-5-164,0-254,81-254,187,0,92,67,153,165,153,69,0,131-29,162-84h5c10,53,54,81,132,81,21,0,41-3,61-9v-115h-15c-23,0-34-11-34-34Zm-161-75c0,63-41,106-95,106-30,0-49-20-49-46,0-37,31-63,88-63h56v3Z"/>
    <path class="cls-2" d="m1397,573V0h-153v594c0,90,49,135,139,135,21,0,42-3,61-9v-115h-12c-23,0-35-12-35-32Z"/>
    <polygon class="cls-2" points="434 295 163 295 163 20 0 20 0 720 163 720 163 437 434 437 434 720 594 720 594 20 434 20 434 295"/>
    <polygon class="cls-2" points="2940 190 2856 510 2851 510 2769 190 2625 190 2546 510 2541 510 2457 190 2299 190 2451 720 2615 720 2696 399 2701 399 2782 720 2946 720 3098 190 2940 190"/>
    <path class="cls-2" d="m1650,573V0h-153v588c0,90,49,141,139,141,21,0,42-3,61-9v-115h-12c-23,0-35-12-35-32Z"/>
    <path class="cls-2" d="m2014,176c-156,0-280,124-280,277s124,279,280,279,279-124,279-279-127-277-279-277Z"/>
    <path class="cls-2" d="m1866.84,134.81c40.37,2.49,93.52,1.86,149.3-3.02,55.79-4.88,108.24-13.48,147.56-22.95,56-13.93,67.9-27.02,66.77-39.97-.61-6.97-5.12-12.6-12.44-15.98,1.61,6.89-3.94,12.39-14.46,18.33-31.65,16.82-109.83,29.69-189.53,36.66-79.7,6.97-158.92,7.88-193.01-3.19-11.39-4.02-17.81-8.48-17.42-15.54-6.62,4.59-10.09,10.92-9.48,17.89,1.13,12.95,15.13,23.77,72.7,27.77Z"/>
  </g>
  <path class="cls-1" d="m2218.03,52.89c-10.48-5.11-28.94-9.51-60.26-11.79-40.37-2.49-93.52-1.86-149.3,3.02-55.79,4.88-108.24,13.48-147.56,22.95-30.45,7.68-47.85,15.23-57.29,22.08-.39,7.06,6.03,11.52,17.42,15.54,19.14-10.71,82.93-27.33,189.53-36.66s172.3-4.03,193.01,3.19c10.52-5.94,16.06-11.44,14.46-18.33Z"/>
</svg>