<?xml version="1.0" encoding="UTF-8"?>
<svg id="Layer_1" data-name="Layer 1" xmlns="http://www.w3.org/2000/svg" viewBox="0 0 559 692.33">
  <defs>
    <style>
      .cls-1 {
        opacity: .5;
      }

      .cls-1, .cls-2 {
        fill: #fff;
        stroke-width: 0px;
      }
    </style>
  </defs>
  <path class="cls-2" d="m280,136.33C124,136.33,0,260.33,0,413.33s124,279,280,279,279-124,279-279-127-277-279-277Z"/>
  <path class="cls-2" d="m132.84,95.14c40.37,2.49,93.52,1.86,149.3-3.02,55.79-4.88,108.24-13.48,147.56-22.95,56-13.93,67.9-27.02,66.77-39.97-.61-6.97-5.12-12.6-12.44-15.98,1.61,6.89-3.94,12.39-14.46,18.33-31.65,16.82-109.83,29.69-189.53,36.66-79.7,6.97-158.92,7.88-193.01-3.19-11.39-4.02-17.81-8.48-17.42-15.54-6.62,4.59-10.09,10.92-9.48,17.89,1.13,12.95,15.13,23.77,72.7,27.77Z"/>
  <path class="cls-1" d="m484.03,13.22c-10.48-5.11-28.94-9.51-60.26-11.79-40.37-2.49-93.52-1.86-149.3,3.02-55.79,4.88-108.24,13.48-147.56,22.95-30.45,7.68-47.85,15.23-57.29,22.08-.39,7.06,6.03,11.52,17.42,15.54,19.14-10.71,82.93-27.33,189.53-36.66,106.59-9.33,172.3-4.03,193.01,3.19,10.52-5.94,16.06-11.44,14.46-18.33Z"/>
</svg>